<svg width="59" height="54" viewBox="0 0 59 54" fill="none" xmlns="http://www.w3.org/2000/svg">
<g filter="url(#filter0_d_210_517)">
<path d="M54.502 23C54.502 40.1 49.0019 45.5 29.502 45.5C10.002 45.5 4.50195 40.1 4.50195 23C4.50195 5.9 10.002 0.5 29.502 0.5C49.0019 0.5 54.502 5.9 54.502 23Z" fill="#F6F1F3"/>
</g>
<path d="M30.3351 14.1665L21.1685 18.3332" stroke="#721F4B" stroke-linecap="round" stroke-linejoin="round"/>
<path d="M29.502 15V30.8333H25.3353C23.7639 30.8333 22.9783 30.8333 22.4901 30.3452C22.002 29.857 22.002 29.0713 22.002 27.5V18.3333" stroke="#721F4B" stroke-linecap="round" stroke-linejoin="round"/>
<path d="M29.502 18.3335L37.8353 22.5002" stroke="#721F4B" stroke-linecap="round" stroke-linejoin="round"/>
<path d="M27.8354 30.8332H33.6688C35.2401 30.8332 36.0258 30.8332 36.5139 30.3451C37.0021 29.8569 37.0021 29.0712 37.0021 27.4999V22.0835" stroke="#721F4B" stroke-linecap="round" stroke-linejoin="round"/>
<path d="M34.502 20.8335V18.3335" stroke="#721F4B" stroke-linecap="round" stroke-linejoin="round"/>
<path d="M25.3354 21.6665H26.1688M25.3354 24.9998H26.1688" stroke="#721F4B" stroke-linecap="round" stroke-linejoin="round"/>
<path d="M32.8354 24.1665H33.6688" stroke="#721F4B" stroke-linecap="round" stroke-linejoin="round"/>
<path d="M33.252 30.8333V27.5" stroke="#721F4B" stroke-linecap="round" stroke-linejoin="round"/>
<defs>
<filter id="filter0_d_210_517" x="0.501953" y="0.5" width="58" height="53" filterUnits="userSpaceOnUse" color-interpolation-filters="sRGB">
<feFlood flood-opacity="0" result="BackgroundImageFix"/>
<feColorMatrix in="SourceAlpha" type="matrix" values="0 0 0 0 0 0 0 0 0 0 0 0 0 0 0 0 0 0 127 0" result="hardAlpha"/>
<feOffset dy="4"/>
<feGaussianBlur stdDeviation="2"/>
<feComposite in2="hardAlpha" operator="out"/>
<feColorMatrix type="matrix" values="0 0 0 0 0.972549 0 0 0 0 0.956863 0 0 0 0 0.964706 0 0 0 1 0"/>
<feBlend mode="normal" in2="BackgroundImageFix" result="effect1_dropShadow_210_517"/>
<feBlend mode="normal" in="SourceGraphic" in2="effect1_dropShadow_210_517" result="shape"/>
</filter>
</defs>
</svg>
