<svg width="2061" height="1107" viewBox="0 0 2061 1107" fill="none" xmlns="http://www.w3.org/2000/svg">
<rect width="2061" height="1107" rx="10" fill="white"/>
<rect x="711" y="125" width="639" height="65" rx="10" fill="#721F4B"/>
<rect x="868" y="272" width="65" height="380" rx="10" fill="#721F4B"/>
<rect x="998" y="272" width="65" height="380" rx="10" fill="#721F4B"/>
<rect x="1128" y="272" width="65" height="380" rx="10" fill="#721F4B"/>
<path d="M788.276 233.614C785.736 227.06 790.572 220 797.6 220H1263.4C1270.43 220 1275.26 227.06 1272.72 233.614L1255.28 278.614C1253.79 282.463 1250.09 285 1245.96 285H815.04C810.912 285 807.208 282.463 805.716 278.614L788.276 233.614Z" fill="#721F4B"/>
<path d="M291.307 779.154L310.926 785.375C307.918 796.312 302.905 804.447 295.887 809.779C288.914 815.066 280.05 817.709 269.295 817.709C255.988 817.709 245.05 813.174 236.482 804.105C227.915 794.991 223.631 782.549 223.631 766.781C223.631 750.102 227.938 737.159 236.551 727.953C245.164 718.702 256.489 714.076 270.525 714.076C282.785 714.076 292.742 717.699 300.398 724.945C304.956 729.229 308.374 735.382 310.652 743.402L290.623 748.188C289.438 742.992 286.954 738.891 283.172 735.883C279.435 732.875 274.878 731.371 269.5 731.371C262.072 731.371 256.033 734.037 251.385 739.369C246.782 744.701 244.48 753.337 244.48 765.277C244.48 777.947 246.759 786.97 251.316 792.348C255.874 797.725 261.798 800.414 269.09 800.414C274.467 800.414 279.093 798.705 282.967 795.287C286.84 791.869 289.62 786.492 291.307 779.154ZM328.361 816V715.785H347.57V816H328.361ZM367.466 733.559V715.785H386.675V733.559H367.466ZM367.466 816V743.402H386.675V816H367.466ZM472.606 816H453.397V778.949C453.397 771.111 452.986 766.052 452.166 763.773C451.346 761.449 450.001 759.649 448.133 758.373C446.31 757.097 444.1 756.459 441.502 756.459C438.175 756.459 435.19 757.37 432.547 759.193C429.904 761.016 428.081 763.432 427.078 766.439C426.121 769.447 425.643 775.007 425.643 783.119V816H406.434V743.402H424.275V754.066C430.61 745.863 438.585 741.762 448.201 741.762C452.44 741.762 456.313 742.536 459.822 744.086C463.331 745.59 465.975 747.527 467.752 749.896C469.575 752.266 470.828 754.955 471.512 757.963C472.241 760.971 472.606 765.277 472.606 770.883V816ZM525.587 743.402V758.715H512.462V787.973C512.462 793.897 512.576 797.361 512.804 798.363C513.078 799.32 513.647 800.118 514.513 800.756C515.425 801.394 516.518 801.713 517.794 801.713C519.572 801.713 522.147 801.098 525.519 799.867L527.16 814.77C522.693 816.684 517.635 817.641 511.984 817.641C508.52 817.641 505.399 817.071 502.619 815.932C499.839 814.747 497.788 813.243 496.466 811.42C495.19 809.551 494.302 807.045 493.8 803.9C493.39 801.667 493.185 797.156 493.185 790.365V758.715H484.367V743.402H493.185V728.979L512.462 717.768V743.402H525.587ZM534.614 778.676C534.614 772.296 536.186 766.12 539.331 760.15C542.475 754.18 546.919 749.623 552.661 746.479C558.449 743.334 564.897 741.762 572.007 741.762C582.99 741.762 591.99 745.339 599.009 752.494C606.027 759.604 609.536 768.604 609.536 779.496C609.536 790.479 605.981 799.594 598.872 806.84C591.808 814.04 582.899 817.641 572.143 817.641C565.49 817.641 559.132 816.137 553.071 813.129C547.055 810.121 542.475 805.723 539.331 799.936C536.186 794.102 534.614 787.016 534.614 778.676ZM554.302 779.701C554.302 786.902 556.011 792.416 559.429 796.244C562.846 800.072 567.062 801.986 572.075 801.986C577.088 801.986 581.281 800.072 584.653 796.244C588.071 792.416 589.78 786.856 589.78 779.564C589.78 772.455 588.071 766.986 584.653 763.158C581.281 759.33 577.088 757.416 572.075 757.416C567.062 757.416 562.846 759.33 559.429 763.158C556.011 766.986 554.302 772.501 554.302 779.701ZM690.819 816H671.61V778.949C671.61 771.111 671.199 766.052 670.379 763.773C669.559 761.449 668.214 759.649 666.346 758.373C664.523 757.097 662.313 756.459 659.715 756.459C656.388 756.459 653.403 757.37 650.76 759.193C648.117 761.016 646.294 763.432 645.291 766.439C644.334 769.447 643.856 775.007 643.856 783.119V816H624.647V743.402H642.488V754.066C648.823 745.863 656.798 741.762 666.414 741.762C670.652 741.762 674.526 742.536 678.035 744.086C681.544 745.59 684.188 747.527 685.965 749.896C687.788 752.266 689.041 754.955 689.725 757.963C690.454 760.971 690.819 765.277 690.819 770.883V816ZM710.031 716.059H729.24V729.799C729.24 735.359 728.761 739.757 727.804 742.992C726.847 746.182 725.024 749.053 722.335 751.605C719.692 754.158 716.32 756.163 712.218 757.621L708.459 749.691C712.332 748.415 715.089 746.661 716.73 744.428C718.371 742.195 719.237 739.141 719.328 735.268H710.031V716.059ZM737.651 795.287L756.929 792.348C757.749 796.085 759.412 798.933 761.919 800.893C764.425 802.807 767.934 803.764 772.446 803.764C777.414 803.764 781.151 802.852 783.657 801.029C785.343 799.753 786.186 798.044 786.186 795.902C786.186 794.444 785.731 793.236 784.819 792.279C783.862 791.368 781.72 790.525 778.393 789.75C762.899 786.332 753.078 783.21 748.931 780.385C743.188 776.465 740.317 771.02 740.317 764.047C740.317 757.758 742.801 752.471 747.768 748.188C752.736 743.904 760.438 741.762 770.874 741.762C780.809 741.762 788.192 743.38 793.022 746.615C797.853 749.851 801.18 754.636 803.003 760.971L784.888 764.32C784.113 761.495 782.632 759.33 780.444 757.826C778.302 756.322 775.226 755.57 771.216 755.57C766.157 755.57 762.534 756.277 760.347 757.689C758.888 758.692 758.159 759.991 758.159 761.586C758.159 762.953 758.797 764.115 760.073 765.072C761.805 766.348 767.775 768.148 777.983 770.473C788.237 772.797 795.392 775.645 799.448 779.018C803.459 782.436 805.464 787.198 805.464 793.305C805.464 799.958 802.684 805.678 797.124 810.463C791.564 815.248 783.338 817.641 772.446 817.641C762.557 817.641 754.718 815.635 748.931 811.625C743.188 807.615 739.429 802.169 737.651 795.287ZM861.662 715.785H898.644C906.984 715.785 913.341 716.423 917.716 717.699C923.595 719.431 928.631 722.507 932.824 726.928C937.017 731.348 940.207 736.771 942.394 743.197C944.582 749.577 945.675 757.462 945.675 766.85C945.675 775.098 944.65 782.208 942.599 788.178C940.093 795.469 936.515 801.371 931.867 805.883C928.358 809.301 923.618 811.967 917.648 813.881C913.182 815.294 907.212 816 899.738 816H861.662V715.785ZM881.896 732.738V799.115H897.004C902.655 799.115 906.733 798.796 909.24 798.158C912.521 797.338 915.233 795.948 917.375 793.988C919.562 792.029 921.339 788.816 922.707 784.35C924.074 779.838 924.757 773.708 924.757 765.961C924.757 758.214 924.074 752.266 922.707 748.119C921.339 743.972 919.425 740.736 916.964 738.412C914.504 736.088 911.382 734.516 907.599 733.695C904.774 733.057 899.237 732.738 890.988 732.738H881.896ZM1004.95 792.895L1024.09 796.107C1021.63 803.126 1017.73 808.48 1012.4 812.172C1007.11 815.818 1000.48 817.641 992.505 817.641C979.881 817.641 970.539 813.516 964.477 805.268C959.692 798.66 957.3 790.32 957.3 780.248C957.3 768.217 960.444 758.806 966.733 752.016C973.022 745.18 980.975 741.762 990.591 741.762C1001.39 741.762 1009.91 745.339 1016.16 752.494C1022.4 759.604 1025.39 770.518 1025.11 785.238H976.987C977.124 790.935 978.673 795.378 981.636 798.568C984.598 801.713 988.289 803.285 992.71 803.285C995.718 803.285 998.247 802.465 1000.3 800.824C1002.35 799.184 1003.9 796.54 1004.95 792.895ZM1006.04 773.48C1005.9 767.921 1004.47 763.705 1001.73 760.834C998.999 757.917 995.672 756.459 991.753 756.459C987.56 756.459 984.097 757.986 981.362 761.039C978.628 764.092 977.283 768.24 977.329 773.48H1006.04ZM1060.94 816L1031.68 743.402H1051.84L1065.52 780.453L1069.48 792.826C1070.53 789.682 1071.19 787.608 1071.46 786.605C1072.1 784.555 1072.78 782.504 1073.51 780.453L1087.32 743.402H1107.08L1078.23 816H1060.94ZM1161.09 792.895L1180.23 796.107C1177.77 803.126 1173.87 808.48 1168.54 812.172C1163.25 815.818 1156.62 817.641 1148.64 817.641C1136.02 817.641 1126.68 813.516 1120.62 805.268C1115.83 798.66 1113.44 790.32 1113.44 780.248C1113.44 768.217 1116.58 758.806 1122.87 752.016C1129.16 745.18 1137.11 741.762 1146.73 741.762C1157.53 741.762 1166.05 745.339 1172.3 752.494C1178.54 759.604 1181.53 770.518 1181.25 785.238H1133.13C1133.26 790.935 1134.81 795.378 1137.78 798.568C1140.74 801.713 1144.43 803.285 1148.85 803.285C1151.86 803.285 1154.39 802.465 1156.44 800.824C1158.49 799.184 1160.04 796.54 1161.09 792.895ZM1162.18 773.48C1162.04 767.921 1160.61 763.705 1157.87 760.834C1155.14 757.917 1151.81 756.459 1147.89 756.459C1143.7 756.459 1140.24 757.986 1137.5 761.039C1134.77 764.092 1133.42 768.24 1133.47 773.48H1162.18ZM1197.11 816V715.785H1216.32V816H1197.11ZM1231.78 778.676C1231.78 772.296 1233.35 766.12 1236.49 760.15C1239.64 754.18 1244.08 749.623 1249.82 746.479C1255.61 743.334 1262.06 741.762 1269.17 741.762C1280.15 741.762 1289.15 745.339 1296.17 752.494C1303.19 759.604 1306.7 768.604 1306.7 779.496C1306.7 790.479 1303.14 799.594 1296.03 806.84C1288.97 814.04 1280.06 817.641 1269.31 817.641C1262.65 817.641 1256.29 816.137 1250.23 813.129C1244.22 810.121 1239.64 805.723 1236.49 799.936C1233.35 794.102 1231.78 787.016 1231.78 778.676ZM1251.46 779.701C1251.46 786.902 1253.17 792.416 1256.59 796.244C1260.01 800.072 1264.22 801.986 1269.24 801.986C1274.25 801.986 1278.44 800.072 1281.81 796.244C1285.23 792.416 1286.94 786.856 1286.94 779.564C1286.94 772.455 1285.23 766.986 1281.81 763.158C1278.44 759.33 1274.25 757.416 1269.24 757.416C1264.22 757.416 1260.01 759.33 1256.59 763.158C1253.17 766.986 1251.46 772.501 1251.46 779.701ZM1321.4 743.402H1339.31V754.066C1341.63 750.421 1344.78 747.458 1348.74 745.18C1352.71 742.901 1357.1 741.762 1361.94 741.762C1370.37 741.762 1377.52 745.066 1383.4 751.674C1389.28 758.282 1392.22 767.488 1392.22 779.291C1392.22 791.413 1389.26 800.847 1383.33 807.592C1377.41 814.291 1370.23 817.641 1361.8 817.641C1357.79 817.641 1354.14 816.843 1350.86 815.248C1347.63 813.653 1344.21 810.919 1340.61 807.045V843.617H1321.4V743.402ZM1340.4 778.471C1340.4 786.628 1342.02 792.667 1345.26 796.586C1348.49 800.46 1352.43 802.396 1357.08 802.396C1361.55 802.396 1365.26 800.619 1368.22 797.064C1371.19 793.464 1372.67 787.585 1372.67 779.428C1372.67 771.817 1371.14 766.166 1368.09 762.475C1365.03 758.783 1361.25 756.938 1356.74 756.938C1352.05 756.938 1348.15 758.76 1345.05 762.406C1341.95 766.007 1340.4 771.361 1340.4 778.471ZM1449.71 792.895L1468.85 796.107C1466.39 803.126 1462.5 808.48 1457.16 812.172C1451.88 815.818 1445.25 817.641 1437.27 817.641C1424.65 817.641 1415.3 813.516 1409.24 805.268C1404.46 798.66 1402.07 790.32 1402.07 780.248C1402.07 768.217 1405.21 758.806 1411.5 752.016C1417.79 745.18 1425.74 741.762 1435.36 741.762C1446.16 741.762 1454.68 745.339 1460.92 752.494C1467.17 759.604 1470.15 770.518 1469.88 785.238H1421.75C1421.89 790.935 1423.44 795.378 1426.4 798.568C1429.36 801.713 1433.06 803.285 1437.48 803.285C1440.48 803.285 1443.01 802.465 1445.06 800.824C1447.11 799.184 1448.66 796.54 1449.71 792.895ZM1450.81 773.48C1450.67 767.921 1449.23 763.705 1446.5 760.834C1443.76 757.917 1440.44 756.459 1436.52 756.459C1432.33 756.459 1428.86 757.986 1426.13 761.039C1423.39 764.092 1422.05 768.24 1422.09 773.48H1450.81ZM1504.13 816H1484.92V743.402H1502.76V753.725C1505.82 748.848 1508.55 745.635 1510.97 744.086C1513.43 742.536 1516.21 741.762 1519.31 741.762C1523.68 741.762 1527.9 742.969 1531.95 745.385L1526 762.133C1522.77 760.036 1519.76 758.988 1516.98 758.988C1514.29 758.988 1512.01 759.74 1510.15 761.244C1508.28 762.702 1506.8 765.368 1505.7 769.242C1504.65 773.116 1504.13 781.228 1504.13 793.578V816ZM1533.66 795.287L1552.94 792.348C1553.76 796.085 1555.43 798.933 1557.93 800.893C1560.44 802.807 1563.95 803.764 1568.46 803.764C1573.43 803.764 1577.16 802.852 1579.67 801.029C1581.36 799.753 1582.2 798.044 1582.2 795.902C1582.2 794.444 1581.74 793.236 1580.83 792.279C1579.87 791.368 1577.73 790.525 1574.41 789.75C1558.91 786.332 1549.09 783.21 1544.94 780.385C1539.2 776.465 1536.33 771.02 1536.33 764.047C1536.33 757.758 1538.81 752.471 1543.78 748.188C1548.75 743.904 1556.45 741.762 1566.89 741.762C1576.82 741.762 1584.2 743.38 1589.04 746.615C1593.87 749.851 1597.19 754.636 1599.02 760.971L1580.9 764.32C1580.13 761.495 1578.64 759.33 1576.46 757.826C1574.31 756.322 1571.24 755.57 1567.23 755.57C1562.17 755.57 1558.55 756.277 1556.36 757.689C1554.9 758.692 1554.17 759.991 1554.17 761.586C1554.17 762.953 1554.81 764.115 1556.09 765.072C1557.82 766.348 1563.79 768.148 1574 770.473C1584.25 772.797 1591.4 775.645 1595.46 779.018C1599.47 782.436 1601.48 787.198 1601.48 793.305C1601.48 799.958 1598.7 805.678 1593.14 810.463C1587.58 815.248 1579.35 817.641 1568.46 817.641C1558.57 817.641 1550.73 815.635 1544.94 811.625C1539.2 807.615 1535.44 802.169 1533.66 795.287ZM1658.29 816V716.605H1678.52V799.115H1728.84V816H1658.29ZM1776.62 743.402V758.715H1763.5V787.973C1763.5 793.897 1763.61 797.361 1763.84 798.363C1764.11 799.32 1764.68 800.118 1765.55 800.756C1766.46 801.394 1767.55 801.713 1768.83 801.713C1770.61 801.713 1773.18 801.098 1776.55 799.867L1778.2 814.77C1773.73 816.684 1768.67 817.641 1763.02 817.641C1759.56 817.641 1756.43 817.071 1753.65 815.932C1750.87 814.747 1748.82 813.243 1747.5 811.42C1746.23 809.551 1745.34 807.045 1744.84 803.9C1744.43 801.667 1744.22 797.156 1744.22 790.365V758.715H1735.4V743.402H1744.22V728.979L1763.5 717.768V743.402H1776.62ZM1856.68 816H1838.83V805.336C1835.87 809.483 1832.36 812.582 1828.31 814.633C1824.3 816.638 1820.24 817.641 1816.14 817.641C1807.8 817.641 1800.64 814.291 1794.67 807.592C1788.75 800.847 1785.79 791.459 1785.79 779.428C1785.79 767.123 1788.68 757.781 1794.47 751.4C1800.26 744.975 1807.57 741.762 1816.41 741.762C1824.52 741.762 1831.54 745.134 1837.47 751.879V715.785H1856.68V816ZM1805.41 778.129C1805.41 785.876 1806.48 791.482 1808.62 794.945C1811.72 799.958 1816.05 802.465 1821.61 802.465C1826.03 802.465 1829.79 800.596 1832.89 796.859C1835.98 793.077 1837.53 787.449 1837.53 779.975C1837.53 771.635 1836.03 765.642 1833.02 761.996C1830.01 758.305 1826.16 756.459 1821.47 756.459C1816.91 756.459 1813.08 758.282 1809.99 761.928C1806.93 765.528 1805.41 770.928 1805.41 778.129Z" fill="#721F4B"/>
<path d="M1217.61 964L1219.29 955.992H1227.3L1225.58 964H1217.61ZM1239.95 964L1241.63 955.992H1249.64L1247.92 964H1239.95ZM1262.3 964L1263.98 955.992H1271.99L1270.27 964H1262.3ZM1282.15 964L1294.1 906.734H1301.17L1289.22 964H1282.15ZM1328.91 956.5C1323.93 962.125 1318.84 964.938 1313.63 964.938C1310.43 964.938 1307.84 964.026 1305.86 962.203C1303.91 960.354 1302.93 958.102 1302.93 955.445C1302.93 953.701 1303.37 950.706 1304.26 946.461L1309.26 922.516H1316.33L1310.78 949.039C1310.31 951.253 1310.08 952.971 1310.08 954.195C1310.08 955.758 1310.55 956.982 1311.48 957.867C1312.45 958.727 1313.85 959.156 1315.7 959.156C1317.68 959.156 1319.61 958.674 1321.48 957.711C1323.39 956.747 1325.01 955.445 1326.37 953.805C1327.75 952.164 1328.87 950.224 1329.73 947.984C1330.3 946.552 1330.96 944.039 1331.72 940.445L1335.47 922.516H1342.54L1333.87 964H1327.34L1328.91 956.5ZM1342.42 964L1360.47 942.945L1350.12 922.516H1357.93L1361.45 929.898C1362.75 932.659 1363.92 935.302 1364.96 937.828L1376.92 922.516H1385.55L1368.13 943.492L1378.6 964H1370.78L1366.64 955.562C1365.76 953.766 1364.75 951.539 1363.63 948.883L1351.29 964H1342.42ZM1413.6 956.5C1408.62 962.125 1403.53 964.938 1398.32 964.938C1395.12 964.938 1392.53 964.026 1390.55 962.203C1388.6 960.354 1387.62 958.102 1387.62 955.445C1387.62 953.701 1388.06 950.706 1388.95 946.461L1393.95 922.516H1401.02L1395.47 949.039C1395 951.253 1394.77 952.971 1394.77 954.195C1394.77 955.758 1395.24 956.982 1396.18 957.867C1397.14 958.727 1398.55 959.156 1400.39 959.156C1402.37 959.156 1404.3 958.674 1406.18 957.711C1408.08 956.747 1409.7 955.445 1411.06 953.805C1412.44 952.164 1413.56 950.224 1414.42 947.984C1414.99 946.552 1415.65 944.039 1416.41 940.445L1420.16 922.516H1427.23L1418.56 964H1412.03L1413.6 956.5ZM1429.89 964L1438.56 922.516H1444.81L1443.05 930.992C1445.19 927.789 1447.27 925.419 1449.3 923.883C1451.36 922.346 1453.46 921.578 1455.59 921.578C1457 921.578 1458.73 922.086 1460.79 923.102L1457.9 929.664C1456.67 928.779 1455.33 928.336 1453.87 928.336C1451.4 928.336 1448.86 929.716 1446.26 932.477C1443.65 935.237 1441.61 940.198 1440.12 947.359L1436.61 964H1429.89ZM1453.95 980.016L1454.38 973.375C1455.84 973.792 1457.26 974 1458.64 974C1460.07 974 1461.23 973.674 1462.12 973.023C1463.26 972.164 1464.51 970.549 1465.87 968.18L1468.13 964.117L1461.22 922.516H1468.17L1471.3 943.492C1471.92 947.633 1472.46 951.773 1472.9 955.914L1491.45 922.516H1498.84L1472.39 969.508C1469.84 974.091 1467.57 977.125 1465.59 978.609C1463.61 980.094 1461.34 980.836 1458.76 980.836C1457.12 980.836 1455.51 980.562 1453.95 980.016ZM1519.03 964L1527.71 922.516H1533.96L1532.2 930.992C1534.33 927.789 1536.42 925.419 1538.45 923.883C1540.51 922.346 1542.6 921.578 1544.74 921.578C1546.14 921.578 1547.88 922.086 1549.93 923.102L1547.04 929.664C1545.82 928.779 1544.48 928.336 1543.02 928.336C1540.54 928.336 1538.01 929.716 1535.4 932.477C1532.8 935.237 1530.75 940.198 1529.27 947.359L1525.75 964H1519.03ZM1576.22 949.898L1583.1 950.602C1582.11 954.013 1579.83 957.255 1576.26 960.328C1572.72 963.401 1568.49 964.938 1563.57 964.938C1560.49 964.938 1557.67 964.234 1555.09 962.828C1552.54 961.396 1550.59 959.326 1549.23 956.617C1547.9 953.909 1547.24 950.823 1547.24 947.359C1547.24 942.828 1548.28 938.44 1550.36 934.195C1552.47 929.924 1555.2 926.76 1558.53 924.703C1561.86 922.62 1565.47 921.578 1569.35 921.578C1574.3 921.578 1578.24 923.115 1581.18 926.188C1584.15 929.26 1585.64 933.453 1585.64 938.766C1585.64 940.797 1585.46 942.88 1585.09 945.016H1554.54C1554.44 945.823 1554.39 946.552 1554.39 947.203C1554.39 951.083 1555.27 954.052 1557.04 956.109C1558.84 958.141 1561.03 959.156 1563.61 959.156C1566.03 959.156 1568.41 958.362 1570.76 956.773C1573.1 955.185 1574.92 952.893 1576.22 949.898ZM1555.68 939.625H1578.96C1578.98 938.896 1579 938.375 1579 938.062C1579 934.521 1578.11 931.812 1576.34 929.938C1574.57 928.036 1572.29 927.086 1569.51 927.086C1566.48 927.086 1563.72 928.128 1561.22 930.211C1558.75 932.294 1556.9 935.432 1555.68 939.625ZM1618.33 957.984C1614.3 962.62 1610.08 964.938 1605.68 964.938C1601.75 964.938 1598.47 963.492 1595.83 960.602C1593.23 957.685 1591.93 953.466 1591.93 947.945C1591.93 942.893 1592.96 938.284 1595.01 934.117C1597.1 929.924 1599.69 926.786 1602.79 924.703C1605.91 922.62 1609.04 921.578 1612.16 921.578C1617.32 921.578 1621.21 924.065 1623.84 929.039L1628.53 906.734H1635.56L1623.61 964H1617.08L1618.33 957.984ZM1598.96 946.617C1598.96 949.508 1599.25 951.786 1599.82 953.453C1600.39 955.12 1601.37 956.513 1602.75 957.633C1604.13 958.727 1605.78 959.273 1607.71 959.273C1610.91 959.273 1613.82 957.607 1616.42 954.273C1619.91 949.846 1621.66 944.378 1621.66 937.867C1621.66 934.586 1620.8 932.021 1619.08 930.172C1617.36 928.323 1615.2 927.398 1612.59 927.398C1610.9 927.398 1609.35 927.776 1607.94 928.531C1606.56 929.286 1605.18 930.576 1603.8 932.398C1602.45 934.195 1601.3 936.487 1600.37 939.273C1599.43 942.06 1598.96 944.508 1598.96 946.617ZM1665.45 949.898L1672.32 950.602C1671.33 954.013 1669.05 957.255 1665.49 960.328C1661.94 963.401 1657.71 964.938 1652.79 964.938C1649.72 964.938 1646.89 964.234 1644.31 962.828C1641.76 961.396 1639.81 959.326 1638.45 956.617C1637.13 953.909 1636.46 950.823 1636.46 947.359C1636.46 942.828 1637.5 938.44 1639.59 934.195C1641.7 929.924 1644.42 926.76 1647.75 924.703C1651.08 922.62 1654.69 921.578 1658.57 921.578C1663.52 921.578 1667.46 923.115 1670.41 926.188C1673.38 929.26 1674.86 933.453 1674.86 938.766C1674.86 940.797 1674.68 942.88 1674.31 945.016H1643.77C1643.66 945.823 1643.61 946.552 1643.61 947.203C1643.61 951.083 1644.5 954.052 1646.27 956.109C1648.06 958.141 1650.25 959.156 1652.83 959.156C1655.25 959.156 1657.63 958.362 1659.98 956.773C1662.32 955.185 1664.14 952.893 1665.45 949.898ZM1644.9 939.625H1668.18C1668.21 938.896 1668.22 938.375 1668.22 938.062C1668.22 934.521 1667.33 931.812 1665.56 929.938C1663.79 928.036 1661.51 927.086 1658.73 927.086C1655.71 927.086 1652.95 928.128 1650.45 930.211C1647.97 932.294 1646.12 935.432 1644.9 939.625ZM1680.57 964L1688.1 927.984H1681.78L1682.91 922.516H1689.24L1690.45 916.617C1691.07 913.674 1691.71 911.552 1692.36 910.25C1693.04 908.948 1694.12 907.88 1695.6 907.047C1697.11 906.188 1699.16 905.758 1701.74 905.758C1703.53 905.758 1706.14 906.135 1709.55 906.891L1708.26 913.062C1705.86 912.438 1703.86 912.125 1702.24 912.125C1700.86 912.125 1699.81 912.477 1699.08 913.18C1698.38 913.857 1697.77 915.484 1697.24 918.062L1696.31 922.516H1704.2L1703.07 927.984H1695.17L1687.64 964H1680.57ZM1711.97 914.742L1713.65 906.734H1720.68L1719 914.742H1711.97ZM1701.66 964L1710.33 922.516H1717.4L1708.73 964H1701.66ZM1719.83 964L1728.5 922.516H1734.9L1733.38 929.742C1736.17 926.904 1738.77 924.833 1741.19 923.531C1743.62 922.229 1746.09 921.578 1748.62 921.578C1751.98 921.578 1754.61 922.49 1756.51 924.312C1758.43 926.135 1759.4 928.57 1759.4 931.617C1759.4 933.154 1759.06 935.576 1758.38 938.883L1753.11 964H1746.04L1751.55 937.711C1752.09 935.159 1752.37 933.271 1752.37 932.047C1752.37 930.667 1751.88 929.547 1750.92 928.688C1749.98 927.828 1748.62 927.398 1746.82 927.398C1743.2 927.398 1739.97 928.701 1737.13 931.305C1734.32 933.909 1732.25 938.375 1730.92 944.703L1726.9 964H1719.83ZM1794.91 949.898L1801.78 950.602C1800.79 954.013 1798.51 957.255 1794.95 960.328C1791.4 963.401 1787.17 964.938 1782.25 964.938C1779.18 964.938 1776.35 964.234 1773.77 962.828C1771.22 961.396 1769.27 959.326 1767.91 956.617C1766.59 953.909 1765.92 950.823 1765.92 947.359C1765.92 942.828 1766.96 938.44 1769.05 934.195C1771.16 929.924 1773.88 926.76 1777.21 924.703C1780.54 922.62 1784.15 921.578 1788.03 921.578C1792.98 921.578 1796.93 923.115 1799.87 926.188C1802.84 929.26 1804.32 933.453 1804.32 938.766C1804.32 940.797 1804.14 942.88 1803.77 945.016H1773.23C1773.12 945.823 1773.07 946.552 1773.07 947.203C1773.07 951.083 1773.96 954.052 1775.73 956.109C1777.52 958.141 1779.71 959.156 1782.29 959.156C1784.71 959.156 1787.09 958.362 1789.44 956.773C1791.78 955.185 1793.6 952.893 1794.91 949.898ZM1774.36 939.625H1797.64C1797.67 938.896 1797.68 938.375 1797.68 938.062C1797.68 934.521 1796.79 931.812 1795.02 929.938C1793.25 928.036 1790.97 927.086 1788.19 927.086C1785.17 927.086 1782.41 928.128 1779.91 930.211C1777.43 932.294 1775.58 935.432 1774.36 939.625ZM1837.02 957.984C1832.98 962.62 1828.76 964.938 1824.36 964.938C1820.43 964.938 1817.15 963.492 1814.52 960.602C1811.91 957.685 1810.61 953.466 1810.61 947.945C1810.61 942.893 1811.64 938.284 1813.7 934.117C1815.78 929.924 1818.37 926.786 1821.47 924.703C1824.6 922.62 1827.72 921.578 1830.85 921.578C1836 921.578 1839.9 924.065 1842.53 929.039L1847.21 906.734H1854.24L1842.29 964H1835.77L1837.02 957.984ZM1817.64 946.617C1817.64 949.508 1817.93 951.786 1818.5 953.453C1819.08 955.12 1820.05 956.513 1821.43 957.633C1822.81 958.727 1824.47 959.273 1826.39 959.273C1829.6 959.273 1832.5 957.607 1835.1 954.273C1838.59 949.846 1840.34 944.378 1840.34 937.867C1840.34 934.586 1839.48 932.021 1837.76 930.172C1836.04 928.323 1833.88 927.398 1831.28 927.398C1829.58 927.398 1828.03 927.776 1826.63 928.531C1825.25 929.286 1823.87 930.576 1822.49 932.398C1821.13 934.195 1819.99 936.487 1819.05 939.273C1818.11 942.06 1817.64 944.508 1817.64 946.617ZM1855.61 964L1857.29 955.992H1865.3L1863.58 964H1855.61Z" fill="#565252"/>
</svg>
