<svg width="84" height="40" viewBox="0 0 84 40" fill="none" xmlns="http://www.w3.org/2000/svg">
<g filter="url(#filter0_d_15_6116)">
<rect x="2" y="1" width="80" height="36" rx="3" fill="#EAECF0"/>
<path d="M22.812 16.524C21.072 16.524 20.076 17.784 20.076 19.68C20.076 21.636 21.204 22.704 22.824 22.704C24.348 22.704 25.272 21.864 25.272 20.46V20.424H22.62V19.068H26.7V24H25.404L25.308 22.992C24.828 23.664 23.832 24.132 22.644 24.132C20.184 24.132 18.468 22.344 18.468 19.644C18.468 16.98 20.208 15.084 22.848 15.084C24.852 15.084 26.4 16.248 26.652 18.036H25.032C24.756 17.004 23.868 16.524 22.812 16.524ZM30.8067 24.156C29.0427 24.156 27.8067 22.872 27.8067 21.036C27.8067 19.176 29.0187 17.892 30.7587 17.892C32.5347 17.892 33.6627 19.08 33.6627 20.928V21.372L29.1987 21.384C29.3067 22.428 29.8587 22.956 30.8307 22.956C31.6347 22.956 32.1627 22.644 32.3307 22.08H33.6867C33.4347 23.376 32.3547 24.156 30.8067 24.156ZM30.7707 19.092C29.9067 19.092 29.3787 19.56 29.2347 20.448H32.2107C32.2107 19.632 31.6467 19.092 30.7707 19.092ZM36.8038 24H35.3398V19.296H34.1998V18.072H35.3398V16.224H36.8038V18.072H37.9558V19.296H36.8038V24ZM50.3443 19.608C50.3443 22.272 48.5923 24.144 46.0723 24.144C43.5643 24.144 41.8363 22.284 41.8363 19.608C41.8363 16.944 43.5763 15.072 46.0843 15.072C48.5923 15.072 50.3443 16.932 50.3443 19.608ZM48.7243 19.608C48.7243 17.736 47.6923 16.548 46.0843 16.548C44.4763 16.548 43.4443 17.736 43.4443 19.608C43.4443 21.48 44.4763 22.668 46.0843 22.668C47.6923 22.668 48.7243 21.456 48.7243 19.608ZM50.7132 16.644V15.228H57.3852V16.644H54.8172V24H53.2812V16.644H50.7132ZM62.0393 20.976H60.1073V24H58.5713V15.228H62.0393C63.8033 15.228 64.9433 16.38 64.9433 18.096C64.9433 19.788 63.7913 20.976 62.0393 20.976ZM61.7393 16.596H60.1073V19.608H61.7153C62.7713 19.608 63.3353 19.044 63.3353 18.084C63.3353 17.124 62.7593 16.596 61.7393 16.596Z" fill="#2753E8"/>
</g>
<defs>
<filter id="filter0_d_15_6116" x="0" y="0" width="84" height="40" filterUnits="userSpaceOnUse" color-interpolation-filters="sRGB">
<feFlood flood-opacity="0" result="BackgroundImageFix"/>
<feColorMatrix in="SourceAlpha" type="matrix" values="0 0 0 0 0 0 0 0 0 0 0 0 0 0 0 0 0 0 127 0" result="hardAlpha"/>
<feOffset dy="1"/>
<feGaussianBlur stdDeviation="1"/>
<feColorMatrix type="matrix" values="0 0 0 0 0.0627451 0 0 0 0 0.0941176 0 0 0 0 0.156863 0 0 0 0.05 0"/>
<feBlend mode="normal" in2="BackgroundImageFix" result="effect1_dropShadow_15_6116"/>
<feBlend mode="normal" in="SourceGraphic" in2="effect1_dropShadow_15_6116" result="shape"/>
</filter>
</defs>
</svg>
